<?xml version="1.0" encoding="UTF-8"?>
<svg id="Layer_1" data-name="Layer 1" xmlns="http://www.w3.org/2000/svg" viewBox="0 0 384.91 420.86">
  <defs>
    <style>
      .cls-1 {
        fill: #2095f4;
      }

      .cls-1, .cls-2, .cls-3, .cls-4, .cls-5, .cls-6, .cls-7, .cls-8 {
        stroke-width: 0px;
      }

      .cls-2 {
        fill: #2197f4;
      }

      .cls-3 {
        fill: #0ab203;
      }

      .cls-4 {
        fill: #2196f3;
      }

      .cls-5 {
        fill: #4caf50;
      }

      .cls-6 {
        fill: #4cb050;
      }

      .cls-7 {
        fill: #0ab103;
      }

      .cls-8 {
        fill: #09b103;
      }
    </style>
  </defs>
  <path class="cls-5" d="M0,193.4c2.32-8,2.15-15.91,3.75-23.58,2.52-12.08,6.25-23.75,10.93-35.06,7-16.89,16.39-32.57,27.89-46.76,8.39-10.36,17.67-20.05,29-27.86C18.05,115.44-.58,179.94,25.96,252.86c26.69,73.31,82.97,110.03,159.66,117.68.59,1.22-.73,1.8-1.43,2.62-4.82,5.68-6.73,12.18-5.48,19.54.39,2.3-.57,3.09-2.54,4.46-6.22,4.34-12.73,2.87-19.03,1.58-17.94-3.68-35.41-8.96-51.67-17.61-16.99-9.04-32.53-19.95-46.52-33.38-16.34-15.68-29.36-33.54-39.41-53.66-8.68-17.37-14.23-35.83-17.42-54.92-.69-4.14-1.34-8.46-1.66-13.06-.35-10.95-.44-21.6-.45-32.71Z"/>
  <path class="cls-6" d="M384.91,224.7c-1.04,6.37-2.06,12.24-2.97,18.14-2.25,14.64-6.84,28.55-12.51,42.19-7.45,17.92-17.71,34.18-30.23,48.78-11.06,12.9-23.61,24.41-37.71,34.23-17.36,12.09-36.4,20.33-56.37,26.71-5.25,1.68-10.8,2.42-16.18,3.7-1.16.28-2.17.93-2.91-.58-1.19-2.45,2.11-9.35,4.87-10,8.07-1.9,14.46-6.18,18.84-13.28,2.25-3.65,3.77-7.72,4.02-11.94.17-2.85,1.3-3.97,3.66-4.97,16.79-7.12,32.7-15.74,46.85-27.43,15.19-12.55,28.29-26.87,38.75-43.62,9.35-14.97,16.56-30.82,21-47.92,2.3-8.89,3.86-17.88,5.05-27,1.32-10.12,1.07-20.23.72-30.29-.72-20.85-5.98-40.76-14.04-59.97-7.05-16.82-17.3-31.64-28.69-45.7-3.82-4.71-8.54-8.7-12.83-13.02-.57-.57-1.3-1.08-1.12-2.07,7.8,1.3,37.39,34.12,49.46,58.34,11.58,23.26,19.7,47.4,21.88,73.71.39,10.67.46,21.08.46,31.98Z"/>
  <path class="cls-1" d="M132.54,0c7.19,4.44,9.22,8.54,7.4,14.09-1.63,4.97-6.05,8.11-10.97,7.78-4.1-.27-9.05-4.66-10.03-8.9-.85-3.68,2.07-9.37,5.87-11.43.57-.31,1.18-.55,1.94-1.12,1.9-.36,3.63-.43,5.78-.43Z"/>
  <path class="cls-2" d="M178.32,420.86c-5.25-5.71-5.91-9.89-2.35-13.73,1.9-2.05,4.31-3.92,7.26-3.01,3.9,1.21,7.1,3.89,7.5,8.07.31,3.2-1.02,6.43-4.65,8.28-2.54.36-4.93.4-7.76.39Z"/>
  <path class="cls-4" d="M127.16,173.7c-12.89-12.32-24.53-25.19-32.77-40.79-6.61-12.52-10.13-25.78-9.48-40.02.06-1.33-.03-2.66-.07-3.99,0-.1-.2-.2-.79-.74-32.2,32.16-50.64,70.08-51.23,116.33-.59,46.2,17.77,84.42,48.64,118.35-5.82-.99-26.36-24.96-38.07-43.97-10.23-16.6-16.95-34.71-20.4-53.84C7.11,137.01,56.47,70.91,104.83,43.77c.02,7.62.69,14.83,1.94,22.05,2.54,14.65,9.28,27.16,17.6,39.12,10.71,15.4,24.45,28.02,38.01,40.66,10.34,9.63,21.1,18.87,31.11,28.83,10.31,10.25,19.94,21.25,27.31,34.01,5.4,9.34,9.84,19.15,11.56,29.73,1.55,9.52,1.82,19.15.85,29-1.93,19.7-9.02,37.6-17.5,54.97-6.85,14.04-15.07,27.42-24.54,39.93-1.65,2.18-1.93,5.38-5.22,6.76.25-4.36,2.64-7.8,4.25-11.32,10.51-23,16.74-46.9,14.57-72.3-1.48-17.32-7.77-33.21-17.69-47.55-12.31-17.79-27.21-33.21-43.38-47.5-5.73-5.07-10.88-10.78-16.55-16.45Z"/>
  <path class="cls-5" d="M329.17,297.2c-8.98,12.43-20.08,22.2-31.75,32.24-.67-2.98,1.34-3.81,2.48-4.89,11.06-10.52,21.05-21.96,28.89-35.06,9.8-16.38,16.69-33.87,20.35-52.77,2.06-10.64,2.75-21.2,2.8-31.93.11-21.14-4.2-41.29-12.39-60.79-8.29-19.72-20.02-37.1-35.22-51.94-13.95-13.62-29.99-24.36-48-32.27-12.83-5.63-26.14-9.53-39.8-11.56-14.26-2.13-28.73-3.76-43.26-.49-4.08.92-8.44.81-12.58,2.08-2.05.63-3.26.33-2.95-2.85.69-6.9.72-13.91-4.07-19.83-1.93-2.38-.11-2.93,1.89-3.5,7.59-2.17,15.44-2.86,23.22-3.53,7.61-.66,15.33-.43,22.97-.09,15.6.68,30.8,3.53,45.61,8.64,14.51,5,28.26,11.44,40.96,20.06,23.71,16.09,42.34,36.68,55.99,61.93,7.13,13.19,12.63,26.97,16.06,41.45,4.12,17.42,5.88,35.28,4.4,53.12-2.07,24.92-9.28,48.52-21.29,70.51-4.07,7.45-8.53,14.71-14.32,21.49Z"/>
  <path class="cls-4" d="M234.57,215.15c-7.88-17.19,1.68-36.96,19.86-42.86,17.45-5.65,39.45,11.34,38.74,29.22-.56,14.27-8.53,25.93-20.47,29.87-14.95,4.94-30.07-.21-38.12-16.23Z"/>
  <path class="cls-4" d="M250.49,280.05c-3.12-10.75-1.8-19.86,5.91-28.42,7.34-8.15,24.68-9.32,33.76-1.84,12.35,10.18,13.77,26.47,2.98,38.12-12.9,13.91-34.86,9.83-42.64-7.86Z"/>
  <path class="cls-4" d="M244.71,140.5c5.88,15.43-.41,25.67-9.62,31.91-12.56,8.51-31.16.49-35.19-14.02-3.95-14.22,4.68-29.75,22.05-31.25,8.64-.75,15.62,3.8,20.92,10.64.59.77,1.13,1.58,1.84,2.73Z"/>
  <path class="cls-2" d="M170.89,135.95c-9.61-1.91-16.66-9.59-16.98-18.03-.4-10.6,4.94-19.22,14.08-21.44,11.72-2.84,23.98,1.99,26.05,16.98,1.89,13.69-9.48,24.57-23.15,22.49Z"/>
  <path class="cls-4" d="M261.57,340.04c-9.83,2.48-18.86.4-23.68-7.51-4.26-7-4.39-13.97-.78-20.93,4.12-7.97,11.32-10.76,19.84-9.56,7.64,1.08,13.16,5.51,15.9,12.86,3.54,9.49-.92,19.55-11.27,25.14Z"/>
  <path class="cls-4" d="M130.58,89.12c-4.8-5.92-4.69-12.2-1.54-18.12,3.28-6.17,8.81-9.49,16.12-9.05,7.71.46,16.44,9.68,15.62,17.34-.74,6.93-5.91,16.22-16.07,15.84-5.66-.21-10.43-.94-14.13-6.01Z"/>
  <path class="cls-2" d="M241.49,365.93c-3.4,7.53-9.04,11.3-16.77,10.91-7.62-.39-12.25-3.75-14.8-11.26-2.55-7.52,1.17-16.98,7.9-20.04,8.44-3.85,17.57-.93,22.21,6.66,2.66,4.36,1.71,8.9,1.46,13.74Z"/>
  <path class="cls-7" d="M133.34,260.54c2.32-.09,4.2-1.38,6.14-2.64,4.54-2.96,9.44-4.54,16.36-3.54-18.41,11.95-24.86,29.58-27.87,49.36-5.62-18.2-9.54-37.25-28.19-49.36,4.95-.26,8.39.09,11.46,1.82,4,2.25,7.86,4.76,11.7,7.27,6.18,4.04,6.33,4.04,10.4-2.91Z"/>
  <path class="cls-2" d="M121.03,49.56c-3.42-6.16-2.73-13.65,1.26-16.77,6.52-5.1,12.22-5.22,17.61-.37,5.18,4.66,5.93,12.53,1.67,17.38-5.35,6.08-12.22,6.9-18.13,2.13-.77-.62-1.44-1.39-2.41-2.38Z"/>
  <path class="cls-2" d="M195.87,400.38c-6.98-6.89-7.87-10.99-4.07-17.91,2.48-4.52,8.23-7.42,12.58-6.33,6.74,1.68,9.92,6.11,10.66,12.18,1.43,11.75-11.08,16.42-19.17,12.06Z"/>
  <path class="cls-3" d="M97.18,248.73c1.33,4.45-.4,6.96-4.54,7.21-6.88.42-15.5-5.78-17.43-12.49-1.07-3.71,1.46-4.25,4.03-4.46,7.9-.65,13.96,2.26,17.94,9.74Z"/>
  <path class="cls-3" d="M132.22,232.95c-4.06,4.99-5.59,4.93-8.67.02-4.04-6.46-3.36-14.71,1.51-20.68,2.11-2.59,3.65-2.66,5.69.16,4.66,6.46,5.59,13.1,1.47,20.5Z"/>
  <path class="cls-8" d="M130.58,307.15c6.55,9.11,5.99,16.59-2.85,25.66-3.75-4.6-7.36-9.14-6.87-15.67.29-3.84,2.2-6.85,4.25-9.78,1.32-1.88,3.31-1.99,5.47-.21Z"/>
  <path class="cls-8" d="M174.82,238.95c6.66.63,7.41,2.03,4.26,7.28-2.89,4.81-6.65,8.54-12.48,9.5-3.18.52-6.18.57-8.31-2.59-1.92-2.84.55-4.47,1.71-6.24,3.34-5.13,7.98-8.23,14.82-7.95Z"/>
  <path class="cls-3" d="M89.23,286.95c1.59,0,2.75-.03,3.91,0,5.5.15,6.59,2.14,3.8,6.89-4.09,6.98-11.16,10.36-18.95,9.09-2.38-.39-3.62-1.32-2.61-4.01,2.4-6.36,6.26-10.99,13.85-11.97Z"/>
  <path class="cls-8" d="M172.02,288.52c4.83,2.2,6.43,6.48,8.4,10.45,1.12,2.26.04,3.4-2.15,3.91-8.28,1.94-16.98-2.87-20.42-10.94-1.37-3.21.84-4.56,2.7-4.78,3.69-.43,7.63-1.01,11.47,1.36Z"/>
  <path class="cls-3" d="M133.51,259.84c-.32.31-.3.3-.3.28-3.08,2.42-6.46,2.59-9.68.59-2.94-1.82-3.09-5.1-2.51-8.04.91-4.62,4.6-5.16,8.47-4.69,3.58.43,5.51,2.42,5.47,6.26-.02,1.89-.5,3.58-1.45,5.6Z"/>
  <path class="cls-3" d="M148.5,240.68c-2.62,1.44-4.27,1.71-4.62-1.75-.57-5.61,2.46-10.43,7.74-12.34,2.26-.82,3.14-.12,3.28,2,.35,5.16-1.12,9.42-6.4,12.1Z"/>
  <path class="cls-3" d="M165.67,274.34c-2.54-.88-3.63-2.99-2.46-4.38,1.95-2.31,4.86-3.76,8.12-3.79.6,0,1.22.45,1.8.74,2.38,1.17,6.67,1.31,6.28,4.3-.39,3.03-4.42,4.12-7.49,4.62-1.94.32-4.35.95-6.25-1.49Z"/>
  <path class="cls-8" d="M101.92,235.57c-1.04-3.37-2.6-7.59.4-8.85,2.87-1.21,6.03,1.67,8.04,4.9,1.91,3.06,2.9,7.24.65,8.72-3.9,2.56-6.76-1.25-9.09-4.77Z"/>
  <path class="cls-7" d="M76.09,270.92c5.98-5.14,9.23-5.68,14.46-2.68,1.07.61,2.47.9,2.37,2.72-.1,1.78-1.12,2.46-2.52,3.23-5.45,3-9.5,2.24-14.31-3.27Z"/>
  <path class="cls-3" d="M109.23,312.13c-2.12,2.13-4.23,4.84-6.84,3.31-2.94-1.71-1.37-4.89-.57-7.58.63-2.14,1.79-3.79,3.55-5.05,1.35-.97,2.61-3.09,4.37-2.11,1.81,1.01,2.47,3.07,2.25,5.43-.21,2.27-1,4.1-2.76,5.99Z"/>
  <path class="cls-3" d="M146.6,312.13c-2.92-3.05-3.39-6.35-2.07-9.78.18-.47,1.06-2.44,2.24-1.87,3.26,1.55,6.15,3.56,7.24,7.39.77,2.69,2.37,5.87-.57,7.57-2.59,1.5-4.73-1.18-6.85-3.31Z"/>
</svg>